<svg width="1024" height="1024" viewBox="0 0 1024 1024" fill="none" xmlns="http://www.w3.org/2000/svg">
<path d="M747.848 303.922L709.038 260.615L755.312 218.801H934.437L973.248 260.615L925.481 303.922H747.848Z" fill="#F2900F"/>
<path d="M653.808 408.458L659.778 345.737L704.56 303.923L740.385 341.257L735.907 408.458L692.618 448.779L653.808 408.458Z" fill="#F2900F"/>
<path d="M904.583 533.901H723.965L686.647 493.58L731.429 450.272H912.047L949.364 490.593L904.583 533.901Z" fill="#F2900F"/>
<path d="M898.612 577.208L943.394 535.394L982.204 575.715L977.726 635.449L931.452 680.25L894.134 641.423L898.612 577.208Z" fill="#F2900F"/>
<path d="M662.764 723.558L709.038 681.743H889.656L925.481 725.051L880.7 765.372H700.082L662.764 723.558Z" fill="#F2900F"/>
<path fill-rule="evenodd" clip-rule="evenodd" d="M17.9126 469.686C17.9126 543.354 47.1643 614.005 99.2327 666.096C151.301 718.187 221.921 747.451 295.557 747.451C369.193 747.451 439.813 718.187 491.881 666.096C543.95 614.005 573.201 543.354 573.201 469.686C573.201 396.018 543.95 325.367 491.881 273.276C439.813 221.185 369.193 191.92 295.557 191.92C221.921 191.92 151.301 221.185 99.2327 273.276C47.1643 325.367 17.9126 396.018 17.9126 469.686ZM114.939 469.686C114.939 493.415 119.611 516.912 128.688 538.836C137.764 560.759 151.069 580.679 167.841 597.458C184.613 614.237 204.524 627.547 226.437 636.628C248.351 645.709 271.838 650.383 295.557 650.383C319.276 650.383 342.763 645.709 364.676 636.628C386.59 627.547 406.501 614.237 423.273 597.458C440.045 580.679 453.349 560.759 462.426 538.836C471.503 516.912 476.175 493.415 476.175 469.686C476.175 445.956 471.503 422.459 462.426 400.536C453.349 378.613 440.045 358.693 423.273 341.914C406.501 325.135 386.59 311.825 364.676 302.744C342.763 293.663 319.276 288.989 295.557 288.989C271.838 288.989 248.351 293.663 226.437 302.744C204.524 311.825 184.613 325.135 167.841 341.914C151.069 358.693 137.764 378.613 128.688 400.536C119.611 422.459 114.939 445.956 114.939 469.686Z" fill="#98948D"/>
<path d="M416.467 595.128L606.041 790.759" stroke="#98938D" stroke-width="89" stroke-linecap="round"/>
</svg>
